<svg width="40" height="40" viewBox="0 0 40 40" fill="none" xmlns="http://www.w3.org/2000/svg">
<path fill-rule="evenodd" clip-rule="evenodd" d="M20 36.6667C12.9283 36.6667 9.39333 36.6667 7.19667 34.225C5 31.7867 5 27.8567 5 20C5 12.1433 5 8.21499 7.19667 5.77333C9.39333 3.33333 12.93 3.33333 20 3.33333C27.0717 3.33333 30.6067 3.33333 32.8033 5.77333C35 8.21666 35 12.1433 35 20C35 27.8567 35 31.785 32.8033 34.225C30.6067 36.6667 27.07 36.6667 20 36.6667ZM15.4167 23.3333C15.4167 23.0018 15.285 22.6839 15.0505 22.4494C14.8161 22.215 14.4982 22.0833 14.1667 22.0833C13.8351 22.0833 13.5172 22.215 13.2828 22.4494C13.0484 22.6839 12.9167 23.0018 12.9167 23.3333V24.5833H11.6667C11.3351 24.5833 11.0172 24.715 10.7828 24.9494C10.5484 25.1839 10.4167 25.5018 10.4167 25.8333C10.4167 26.1648 10.5484 26.4828 10.7828 26.7172C11.0172 26.9516 11.3351 27.0833 11.6667 27.0833H12.9167V28.3333C12.9167 28.6648 13.0484 28.9828 13.2828 29.2172C13.5172 29.4516 13.8351 29.5833 14.1667 29.5833C14.4982 29.5833 14.8161 29.4516 15.0505 29.2172C15.285 28.9828 15.4167 28.6648 15.4167 28.3333V27.0833H16.6667C16.9982 27.0833 17.3161 26.9516 17.5505 26.7172C17.785 26.4828 17.9167 26.1648 17.9167 25.8333C17.9167 25.5018 17.785 25.1839 17.5505 24.9494C17.3161 24.715 16.9982 24.5833 16.6667 24.5833H15.4167V23.3333ZM27.2217 23.055C27.2217 23.4232 27.0754 23.7763 26.815 24.0367C26.5547 24.2971 26.2015 24.4433 25.8333 24.4433C25.4651 24.4433 25.112 24.2971 24.8516 24.0367C24.5913 23.7763 24.445 23.4232 24.445 23.055C24.445 22.6868 24.5913 22.3337 24.8516 22.0733C25.112 21.8129 25.4651 21.6667 25.8333 21.6667C26.2015 21.6667 26.5547 21.8129 26.815 22.0733C27.0754 22.3337 27.2217 22.6868 27.2217 23.055ZM27.2217 28.6117C27.2217 28.9799 27.0754 29.333 26.815 29.5934C26.5547 29.8537 26.2015 30 25.8333 30C25.4651 30 25.112 29.8537 24.8516 29.5934C24.5913 29.333 24.445 28.9799 24.445 28.6117C24.445 28.2435 24.5913 27.8903 24.8516 27.63C25.112 27.3696 25.4651 27.2233 25.8333 27.2233C26.2015 27.2233 26.5547 27.3696 26.815 27.63C27.0754 27.8903 27.2217 28.2435 27.2217 28.6117ZM23.055 27.2217C23.4232 27.2217 23.7763 27.0754 24.0367 26.815C24.2971 26.5547 24.4433 26.2015 24.4433 25.8333C24.4433 25.4651 24.2971 25.112 24.0367 24.8516C23.7763 24.5913 23.4232 24.445 23.055 24.445C22.6868 24.445 22.3337 24.5913 22.0733 24.8516C21.8129 25.112 21.6667 25.4651 21.6667 25.8333C21.6667 26.2015 21.8129 26.5547 22.0733 26.815C22.3337 27.0754 22.6868 27.2217 23.055 27.2217ZM30 25.8333C30 26.2018 29.8536 26.5551 29.5931 26.8156C29.3326 27.0761 28.9793 27.2225 28.6108 27.2225C28.2424 27.2225 27.8891 27.0761 27.6285 26.8156C27.368 26.5551 27.2217 26.2018 27.2217 25.8333C27.2217 25.4649 27.368 25.1116 27.6285 24.851C27.8891 24.5905 28.2424 24.4442 28.6108 24.4442C28.9793 24.4442 29.3326 24.5905 29.5931 24.851C29.8536 25.1116 30 25.4649 30 25.8333ZM11.7517 11.8533C11.6667 12.17 11.6667 12.5583 11.6667 13.3333C11.6667 14.1083 11.6667 14.495 11.7517 14.8133C11.8653 15.2369 12.0884 15.6231 12.3985 15.9332C12.7086 16.2433 13.0948 16.4663 13.5183 16.58C13.84 16.6667 14.2267 16.6667 15 16.6667H25C25.775 16.6667 26.1617 16.6667 26.48 16.5817C26.9036 16.468 27.2898 16.2449 27.5999 15.9348C27.9099 15.6248 28.133 15.2385 28.2467 14.815C28.3333 14.4933 28.3333 14.1067 28.3333 13.3333C28.3333 12.56 28.3333 12.1717 28.2483 11.8533C28.1347 11.4298 27.9116 11.0436 27.6015 10.7335C27.2914 10.4234 26.9052 10.2003 26.4817 10.0867C26.1617 9.99999 25.7733 9.99999 25 9.99999H15C14.225 9.99999 13.8383 9.99999 13.52 10.085C13.0964 10.1986 12.7102 10.4217 12.4001 10.7318C12.0901 11.0419 11.867 11.4281 11.7533 11.8517L11.7517 11.8533Z" fill="#606060"/>
</svg>
